<svg id="Layer_1" enable-background="new 0 0 512 512" height="512" viewBox="0 0 512 512" width="512" xmlns="http://www.w3.org/2000/svg"><g><g><g><g><g><g><g><g><g><circle cx="256" cy="256" fill="#a3d4ff" r="256"/></g></g></g></g></g></g></g></g><path d="m423.13 143.51-28.251-28.251-17.19 20.131-42.044-42.044-10.854 7.174-48.791-48.791-14.89 158.691-105.294-105.293-29.968 78.139-56.267-13.142 56.339 56.339-50.532 16.158 57.32 57.32-67.453 8.134 50.923 50.923-26.401 17.406 133.529 133.529c10.706 1.364 21.618 2.067 32.694 2.067 141.385 0 256-114.615 256-256 0-11.076-.703-21.988-2.068-32.693l-87.71-87.71z" fill="#65b1fc"/><g><path d="m442.418 170.124-20.196-34.527-146.222 85.533v-68.139l59.645-59.645-28.284-28.284-31.361 31.361v-44.694h-40v44.694l-31.361-31.361-28.284 28.284 59.645 59.645v68.139l-58.816-34.404-21.368-81.599-38.695 10.133 11.235 42.903-38.578-22.566-20.196 34.527 38.578 22.566-42.904 11.235 10.133 38.696 81.599-21.368 59.402 34.747-59.402 34.747-81.599-21.368-10.133 38.696 42.904 11.235-38.578 22.566 20.196 34.527 38.578-22.566-11.235 42.903 38.695 10.133 21.368-81.599 58.816-34.404v68.139l-59.645 59.645 28.284 28.284 31.361-31.361v44.694h40v-44.694l31.361 31.361 28.284-28.284-59.645-59.645v-68.139l146.222 85.533 20.196-34.527-146.808-85.876z" fill="#fff"/><path d="m255.818 460.271h20.182v-44.694l31.361 31.361 28.284-28.284-59.645-59.645v-68.14l58.816 34.405 21.368 81.599 38.695-10.133-11.235-42.904 38.578 22.567 20.196-34.527-38.578-22.566 42.904-11.235-10.133-38.696-81.599 21.368-59.402-34.747 59.402-34.747 81.599 21.368 10.133-38.696-42.904-11.235 38.578-22.566-20.196-34.527-38.578 22.567 11.235-42.904-38.695-10.133-21.368 81.599-58.816 34.405v-68.14l59.645-59.645-28.284-28.284-31.361 31.361v-44.694h-20.182z" fill="#e9edf5"/></g></g></svg>